PathFileType	4	(X/Y/Z)	Walk1.trc
DataRate	CameraRate	NumFrames	NumMarkers	Units	OrigDataRate	OrigDataStartFrame	OrigNumFrames
200.000000	200.000000	6	59	mm	200.000000	478	554
Frame#	Times		LBHD		C7		T10		RBack		LPSI		RPSI		LTB1		RCAR		LMT5		LLFC		LFHD		RWRR		LTH4		LUA1		RBHD		RElbowM		LElbowM		RUA1		RFA1		CLAV		RTH3		RACR1		LACR1		RWRU		RTH2		LWRU		LCAR		RFHD		RTB1		LFA1		RElbow		RTB2		RCAL		RTH4		RTB4		RToe		RTB3		RMT1		RLFC		RTH1		RMT5		LElbow		LTB4		RLMAL		STRN		LASI		LTB3		LWRR		LTH3		RASI		LLMAL		LTH1		LMT1		RMMAL		LCAL		LTH2		LTB2		LMMAL		LToe
			X1	Y1	Z1	X2	Y2	Z2	X3	Y3	Z3	X4	Y4	Z4	X5	Y5	Z5	X6	Y6	Z6	X7	Y7	Z7	X8	Y8	Z8	X9	Y9	Z9	X10	Y10	Z10	X11	Y11	Z11	X12	Y12	Z12	X13	Y13	Z13	X14	Y14	Z14	X15	Y15	Z15	X16	Y16	Z16	X17	Y17	Z17	X18	Y18	Z18	X19	Y19	Z19	X20	Y20	Z20	X21	Y21	Z21	X22	Y22	Z22	X23	Y23	Z23	X24	Y24	Z24	X25	Y25	Z25	X26	Y26	Z26	X27	Y27	Z27	X28	Y28	Z28	X29	Y29	Z29	X30	Y30	Z30	X31	Y31	Z31	X32	Y32	Z32	X33	Y33	Z33	X34	Y34	Z34	X35	Y35	Z35	X36	Y36	Z36	X37	Y37	Z37	X38	Y38	Z38	X39	Y39	Z39	X40	Y40	Z40	X41	Y41	Z41	X42	Y42	Z42	X43	Y43	Z43	X44	Y44	Z44	X45	Y45	Z45	X46	Y46	Z46	X47	Y47	Z47	X48	Y48	Z48	X49	Y49	Z49	X50	Y50	Z50	X51	Y51	Z51	X52	Y52	Z52	X53	Y53	Z53	X54	Y54	Z54	X55	Y55	Z55	X56	Y56	Z56	X57	Y57	Z57	X58	Y58	Z58	X59	Y59	Z59

478	2.39	749.86	1476.4	-116.63	687.11	1352.7	-39.287	663.34	1073	-15.05	662.05	1257.3	100.75	646.77	877.82	-48.46	637.66	889.42	51.046	945.47	347.7	-55.373	929.1	768.22	264.06	1022.4	29.465	-95.731	898.58	453.49	-135.45	917.65	1437.7	-90.998	930.51	813.01	216.14	874.95	656.22	-163.94	733.05	1098.8	-266.22	748.91	1488.9	6.4736	741.22	957.42	185.96	659.73	962.06	-200.5	786.32	1147.2	207.66	820.61	882.27	263.66	804.74	1263.9	-31.355	745.49	539.86	176.73	761.71	1294.9	116.38	751.46	1274.1	-198.37	870.25	781.87	247.07	828.92	633.55	166.24	700.3	744.37	-306.02	737.85	699.51	-329.08	923.35	1448.8	-13.834	693.72	317.24	83.989	690.73	863.48	-297.71	786.92	1006.3	255.95	602.35	275.05	148.23	424.89	182.53	80.959	756.19	633.4	195.76	624.98	255.9	83.444	536.76	24.285	50.084	562.9	187.28	75.42	514.73	59.248	42.885	743.38	440.77	168.38	768.15	719.89	216.88	494.84	61.816	101.1	683.43	986.62	-271.92	946.63	255.68	-53.177	476.02	151.95	114.25	868.69	1162.2	-31.284	850.68	853.77	-152.76	964.18	166.03	-47.393	771.2	733.17	-284.15	899.59	567.24	-142.7	873.85	869.18	141.57	931.74	61.744	-93.266	845.77	742.59	-188.07	1043.9	50.284	-42.706	489.8	154.85	34.5	890.04	27.895	-52.839	926.42	685.55	-120.63	925.77	251.21	-120.23	949.55	68.62	-15.301	1099.5	26.777	-50.276
479	2.395	755.72	1477.3	-117.71	692.6	1353.8	-40.29	672.03	1073.8	-15.518	667.94	1258.8	99.972	652.29	878.69	-49.05	643.45	890.32	50.43	947.26	347.61	-55.687	931.1	768.26	264.27	1022.6	29.245	-95.716	901.19	453.58	-136.23	923.37	1438.6	-92.023	932.69	812.93	217.07	879.37	656.69	-164.92	738.76	1100.1	-266.9	754.56	1490.1	5.3752	745.15	959.52	185.21	665.94	963.07	-200.7	791.42	1148.9	207.32	823.83	883.48	263.46	810.57	1265.1	-32.105	754.4	540.17	177.28	767.8	1296.2	115.19	757	1275.3	-199.07	872.73	782.31	247.31	836.98	634.62	166.34	706.9	745.33	-305.97	744.63	700.84	-329.08	929.12	1449.7	-15.194	703.89	317.68	86.407	696.61	864.48	-297.84	791.11	1007.9	255.8	610.27	278.27	149.07	433.27	188.24	80.246	764.16	634.09	195.68	634.17	256.77	83.9	539.42	24.613	50.604	571.11	189.71	77.402	519.46	61.83	43.508	753.46	441.78	169.57	775.11	720.91	216.17	498.54	64.669	101.44	689.04	987.84	-272.4	948.05	255.6	-53.307	482.66	156.5	114.22	874.47	1163.7	-32.266	856.09	854.63	-153.53	964.83	165.89	-47.478	777.93	734.63	-284.32	903.08	567.46	-143.49	879.77	870.13	141	932.24	61.77	-93.288	850.85	743.28	-188.96	1044.1	49.959	-42.617	498.05	158.21	35.05	890.1	27.91	-52.89	930.65	685.59	-121.26	927.71	251.33	-120.61	949.66	68.672	-15.334	1099.4	26.547	-50.439
480	2.4	761.49	1478.3	-118.84	698.69	1354.8	-40.619	679.82	1074.4	-16.028	673.96	1259.9	99.413	657.8	879.77	-49.597	648.93	890.9	49.899	948.84	347.54	-55.81	933.5	768.25	264.41	1023	29.314	-95.728	903.51	453.71	-136.87	929.22	1439.4	-92.949	935.51	813.1	216.82	883.6	657.08	-165.99	744.19	1101.7	-267.5	760.49	1491.3	4.2348	749.37	961.11	184.19	671.82	964.5	-201.01	796.73	1150.2	206.43	826.92	884.67	263.18	816.28	1266.3	-32.918	763.37	540.63	177.83	773.86	1297.9	114.52	762.58	1276.6	-199.72	875.16	783.2	247.44	844.63	635.7	166.66	713.48	746.45	-305.78	751.35	702.04	-329.07	934.84	1450.2	-16.366	714.4	317.98	88.438	702.83	865.65	-298.02	795.24	1009.6	255.33	618.16	281.69	149.52	441.89	193.49	79.688	771.84	634.76	195.69	643.6	259.38	85.48	542.55	24.885	51.495	579.71	191.78	78.984	524.53	64.387	44.601	763.08	442.31	170.55	781.85	721.73	215.41	502.79	67.74	101.34	694.63	989.1	-272.69	949.31	255.51	-53.402	489.59	160.72	114.41	880.08	1164.7	-33.234	861.48	855.69	-154.26	965.46	165.63	-47.501	784.55	735.7	-284.12	906.16	567.46	-143.97	885.39	870.74	140.51	932.84	61.774	-93.371	855.74	743.94	-189.88	1044.2	49.766	-42.618	506.33	161.46	35.463	890.12	27.935	-52.901	934.99	686.1	-122.03	929.37	251.31	-120.85	949.78	68.614	-15.376	1099.6	26.203	-50.994
481	2.405	767.25	1479.4	-119.89	704.53	1355.9	-41.293	686.58	1075.3	-16.21	679.84	1261.2	98.741	663.41	880.92	-50.531	654.48	891.36	49.524	950.53	347.39	-55.907	935.41	768.36	264.56	1022.9	29.204	-95.739	905.92	453.85	-137.58	934.93	1440.5	-93.798	938.07	812.92	217.26	887.8	657.49	-167.04	749.82	1102.8	-268.29	766.21	1492.4	3.291	753.72	963.01	183.56	678.33	965.96	-201.62	802.2	1151.4	205.41	829.97	885.77	262.94	822.02	1267.4	-33.746	772.46	541	178.26	779.62	1298.9	113.29	768.1	1277.8	-200.44	877.43	783.89	247.46	852.55	637.44	167.26	720.21	747.57	-305.6	758.19	703.31	-328.9	940.77	1451.5	-17.576	725.07	318.2	90.628	708.94	866.69	-298.07	799.08	1010.7	254.7	626.47	284.37	150.43	450.56	198.44	79.529	779.54	635.61	195.38	653.48	261.44	86.636	545.94	24.975	52.636	588.41	193.95	80.492	530.39	67.463	45.443	773.02	442.46	171.58	788.63	722.48	214.54	508.08	72.652	100.71	700.29	990.2	-273.09	950.29	255.39	-53.535	497.25	165.02	114.5	885.79	1165.9	-34.196	866.97	856.82	-155.37	966.15	165.46	-47.499	791.36	736.9	-284.19	908.82	567.21	-144.06	891.06	871.23	140.19	933.02	61.791	-93.57	860.51	744.53	-190.79	1044.3	49.593	-42.625	514.94	165.04	35.779	890.76	27.239	-53.214	939.42	685.65	-123.24	930.92	251.27	-121.07	949.93	68.547	-15.413	1099.7	25.908	-51.325
482	2.41	773.14	1480.3	-120.7	710.21	1357	-42.168	692.49	1076.6	-16.667	685.66	1262.3	98.068	669.04	881.83	-51.226	659.96	891.86	48.93	952.17	347.16	-55.965	937.64	768.33	264.75	1023.1	29.266	-95.889	908.06	454.02	-138.16	940.72	1441.2	-94.716	940.37	812.8	217.65	891.55	657.65	-167.74	755.24	1104.5	-269.08	771.99	1493.5	2.2744	758.02	964.36	182.66	684.25	967.07	-201.75	807.67	1152.8	204.53	833.06	886.71	262.78	827.78	1268.5	-34.552	781.8	541.31	178.85	785.53	1300.3	112.63	773.68	1279.3	-201.17	879.68	784.61	247.72	860.7	639.1	167.64	726.78	748.82	-305.77	765.07	704.54	-328.82	946.49	1452.8	-18.529	735.61	318.5	92.801	714.97	867.65	-298.34	803.1	1011.7	253.95	635.02	287.05	151.52	459.25	202.89	79.332	787.38	636.26	195.05	662.95	262.85	88.726	549.75	25.036	53.736	596.92	196.18	81.468	536.8	70.366	46.313	783.47	442.66	172.78	795.46	723.31	213.72	514.17	76.675	100.87	705.93	991.4	-273.63	951.31	255.2	-53.674	505.12	169.45	114.43	891.47	1166.8	-34.828	872.49	857.71	-156.25	966.91	164.89	-47.337	797.92	738.35	-284.19	911.54	567.02	-144.5	896.67	871.78	139.64	933.22	61.749	-93.573	865.03	744.98	-191.75	1044.3	49.508	-42.616	523.59	168.4	35.886	891.26	26.716	-53.483	943.63	685.32	-124.33	932.41	251.24	-121.38	950.09	68.436	-15.447	1099.8	25.49	-50.952
483	2.415	778.69	1481.1	-121.64	716.02	1357.9	-42.933	697.59	1077.6	-17.317	691.55	1263.3	97.275	674.28	882.75	-51.948	665.39	892.32	48.241	953.55	347.02	-56.195	939.73	768.37	265.04	1023.3	29.288	-95.891	910.1	454.01	-138.63	946.43	1442.2	-95.63	943.27	813	217.17	895.19	657.74	-168.54	760.87	1105.7	-269.85	777.77	1494.6	1.4768	762.05	966.12	181.86	690.29	967.95	-202.19	812.93	1154	203.87	836.14	887.45	262.59	833.55	1269.3	-35.333	790.89	541.78	179.13	791.29	1301.6	112.04	779.23	1280.4	-201.68	881.85	785.14	247.84	869.36	640.22	167.63	733.71	749.99	-305.91	771.84	705.6	-328.77	952.19	1453.5	-18.917	745.92	318.88	94.906	721.02	868.61	-298.55	807.39	1012.9	253.36	643.98	289.45	151.95	468.57	207.23	79.053	795.42	636.81	195.01	672.37	263.91	90.375	554.5	25.808	56.227	606.3	198.92	81.957	544.15	73.266	47.362	793.84	442.93	173.68	802.35	724.11	213.05	520.92	80.118	101.19	711.57	992.5	-274.09	952.44	254.99	-53.963	513.58	173.4	114.45	897.2	1167.7	-35.789	877.61	858.61	-157.15	967.49	164.58	-47.282	804.86	739.52	-284.53	914.41	566.82	-145.13	902.24	872.28	139	933.38	61.683	-93.547	869.45	745.36	-192.54	1044.3	49.408	-42.615	532.22	171.67	35.76	891.32	26.63	-53.55	947.87	685.03	-125.33	933.7	251.04	-121.58	950.28	68.343	-15.444	1099.5	25.299	-50.717
